<svg width="16" height="16" viewBox="0 0 16 16" fill="none" xmlns="http://www.w3.org/2000/svg">
<path d="M8 16C6.89333 16 5.85333 15.79 4.88 15.37C3.90667 14.95 3.06 14.38 2.34 13.66C1.62 12.94 1.05 12.0933 0.63 11.12C0.21 10.1467 0 9.10667 0 8C0 6.89333 0.21 5.85333 0.63 4.88C1.05 3.90667 1.62 3.06 2.34 2.34C3.06 1.62 3.90667 1.05 4.88 0.63C5.85333 0.21 6.89333 0 8 0C9.10667 0 10.1467 0.21 11.12 0.63C12.0933 1.05 12.94 1.62 13.66 2.34C14.38 3.06 14.95 3.90667 15.37 4.88C15.79 5.85333 16 6.89333 16 8V9.16C16 9.94667 15.73 10.6167 15.19 11.17C14.65 11.7233 13.9867 12 13.2 12C12.7333 12 12.2933 11.9 11.88 11.7C11.4667 11.5 11.12 11.2133 10.84 10.84C10.4533 11.2267 10.0167 11.5167 9.53 11.71C9.04333 11.9033 8.53333 12 8 12C6.89333 12 5.95 11.61 5.17 10.83C4.39 10.05 4 9.10667 4 8C4 6.89333 4.39 5.95 5.17 5.17C5.95 4.39 6.89333 4 8 4C9.10667 4 10.05 4.39 10.83 5.17C11.61 5.95 12 6.89333 12 8V9.16C12 9.50667 12.1133 9.8 12.34 10.04C12.5667 10.28 12.8533 10.4 13.2 10.4C13.5467 10.4 13.8333 10.28 14.06 10.04C14.2867 9.8 14.4 9.50667 14.4 9.16V8C14.4 6.21333 13.78 4.7 12.54 3.46C11.3 2.22 9.78667 1.6 8 1.6C6.21333 1.6 4.7 2.22 3.46 3.46C2.22 4.7 1.6 6.21333 1.6 8C1.6 9.78667 2.22 11.3 3.46 12.54C4.7 13.78 6.21333 14.4 8 14.4H12V16H8ZM8 10.4C8.66667 10.4 9.23333 10.1667 9.7 9.7C10.1667 9.23333 10.4 8.66667 10.4 8C10.4 7.33333 10.1667 6.76667 9.7 6.3C9.23333 5.83333 8.66667 5.6 8 5.6C7.33333 5.6 6.76667 5.83333 6.3 6.3C5.83333 6.76667 5.6 7.33333 5.6 8C5.6 8.66667 5.83333 9.23333 6.3 9.7C6.76667 10.1667 7.33333 10.4 8 10.4Z" fill="#004CBB"/>
</svg>
